<?xml version="1.0" standalone="no"?>
<!DOCTYPE svg PUBLIC "-//W3C//DTD SVG 20010904//EN"
 "http://www.w3.org/TR/2001/REC-SVG-20010904/DTD/svg10.dtd">
<svg version="1.0" xmlns="http://www.w3.org/2000/svg"
 width="516.000000pt" height="516.000000pt" viewBox="0 0 516.000000 516.000000"
 preserveAspectRatio="xMidYMid meet">

<g transform="translate(0.000000,516.000000) scale(0.100000,-0.100000)"
fill="#000000" stroke="none">
<path d="M2480 5132 c-39 -19 -50 -54 -27 -86 13 -17 11 -24 -14 -62 -16 -23
-29 -47 -29 -53 0 -11 -73 -16 -152 -12 -20 2 -49 -4 -65 -12 -35 -17 -168
-41 -182 -32 -6 3 -34 -1 -63 -10 -28 -8 -53 -15 -55 -15 -9 0 11 46 28 69 50
63 -13 143 -76 97 -15 -11 -17 -22 -12 -73 4 -33 4 -76 1 -95 -6 -31 -12 -38
-48 -52 -25 -10 -55 -14 -73 -10 -24 5 -37 0 -64 -24 -47 -41 -75 -53 -101
-47 -17 4 -33 -4 -63 -32 l-40 -38 -5 35 c-4 26 0 39 18 57 42 42 15 113 -43
113 -27 0 -65 -31 -65 -53 0 -7 9 -30 20 -52 13 -25 19 -55 18 -86 l-2 -47
-33 5 c-30 5 -34 3 -48 -31 -8 -20 -19 -36 -24 -36 -4 0 -38 -23 -75 -51 -69
-52 -80 -57 -129 -58 -35 -1 -67 -34 -67 -70 0 -22 -13 -39 -57 -78 -32 -27
-66 -52 -76 -56 -11 -4 -15 -12 -11 -18 4 -8 3 -9 -5 -5 -7 4 -18 -5 -29 -24
-34 -62 -38 -66 -57 -50 -9 7 -24 30 -33 49 -33 69 -122 62 -122 -9 0 -23 7
-31 38 -44 20 -8 48 -24 62 -35 21 -17 22 -21 7 -21 -10 0 -38 -21 -62 -47
-34 -37 -46 -59 -51 -93 -8 -59 -28 -91 -82 -136 -33 -27 -42 -41 -38 -57 6
-25 -49 -147 -67 -147 -7 0 -24 -11 -37 -24 l-25 -23 -28 23 c-35 29 -47 30
-81 3 -35 -28 -35 -70 0 -98 15 -12 35 -21 45 -21 10 0 29 -4 44 -10 25 -9 25
-11 11 -38 -8 -16 -22 -34 -30 -41 -10 -8 -16 -30 -16 -56 0 -52 -23 -131 -45
-155 -12 -14 -17 -36 -16 -79 0 -34 -1 -61 -3 -61 -17 0 -66 25 -70 36 -7 17
-47 19 -64 2 -17 -17 -15 -84 4 -102 19 -20 28 -20 44 -1 7 8 23 15 37 15 29
0 42 -28 21 -44 -22 -17 -48 -71 -48 -103 0 -15 9 -41 20 -58 25 -38 25 -86 0
-115 -24 -28 -27 -92 -5 -110 20 -17 20 -80 0 -80 -8 0 -15 -6 -16 -12 0 -7
-4 -3 -9 10 -12 27 -24 28 -51 1 -14 -14 -18 -27 -13 -42 12 -37 55 -60 69
-37 12 19 22 10 17 -15 -2 -15 4 -39 17 -61 25 -42 40 -147 22 -158 -20 -13
-11 -58 18 -91 32 -37 50 -110 32 -128 -18 -18 -13 -52 10 -73 12 -10 30 -32
40 -49 l18 -29 -42 -13 c-23 -7 -56 -13 -73 -13 -39 0 -64 -27 -64 -68 0 -62
56 -66 134 -10 60 42 80 34 70 -27 -5 -36 -3 -50 11 -65 10 -11 24 -20 31 -20
8 0 30 -32 49 -70 19 -39 51 -95 70 -125 l35 -55 -41 -27 c-27 -18 -52 -26
-74 -25 -38 3 -65 -25 -65 -68 0 -57 63 -69 110 -22 43 43 90 82 100 82 5 0
10 -17 12 -38 3 -31 9 -40 38 -54 45 -23 99 -94 100 -131 0 -47 17 -69 48 -62
22 4 34 -1 61 -29 20 -21 35 -47 37 -67 2 -17 8 -37 14 -44 12 -14 -11 -38
-51 -54 -58 -21 -40 -111 22 -111 22 0 34 7 46 27 15 27 84 83 102 83 5 0 15
-7 22 -17 8 -9 53 -45 102 -80 48 -36 87 -71 87 -78 0 -19 40 -45 69 -45 31 0
107 -44 121 -70 7 -13 21 -20 39 -20 15 0 31 -3 34 -6 9 -9 -40 -65 -74 -86
-52 -32 -31 -118 29 -118 20 0 62 42 62 62 0 6 9 23 21 39 16 23 26 28 42 23
12 -4 40 -6 62 -5 21 0 59 -6 82 -15 37 -14 43 -21 43 -45 0 -38 13 -43 79
-29 44 9 67 9 100 0 43 -11 43 -12 38 -47 -4 -20 -15 -46 -27 -58 -41 -44 -14
-105 48 -105 41 0 59 30 42 69 -17 42 -4 75 33 89 26 9 54 8 147 -9 63 -11
153 -21 200 -23 57 -1 95 -8 115 -19 38 -22 51 -21 83 2 20 14 52 20 130 24
l103 5 -6 -43 -7 -43 46 -22 c51 -26 62 -43 40 -65 -20 -19 -58 -19 -78 1 -19
18 -20 36 -4 52 6 6 9 15 5 19 -12 11 -29 -14 -29 -43 0 -55 73 -81 119 -43
20 17 16 56 -9 73 -17 12 -20 18 -10 28 7 7 12 31 12 54 0 24 5 46 11 50 7 4
66 7 131 8 95 1 121 4 128 16 22 35 28 40 58 46 30 6 32 5 32 -24 0 -17 5 -34
10 -37 6 -4 2 -13 -11 -24 -14 -11 -21 -29 -22 -54 -1 -42 15 -62 55 -72 51
-13 103 72 64 104 -7 6 -16 34 -19 62 -4 28 -12 57 -18 65 -10 12 -2 14 44 14
45 0 57 4 61 18 9 27 129 83 165 76 24 -5 33 -1 52 26 21 28 156 119 162 109
26 -46 26 -48 11 -79 -14 -27 -14 -33 -1 -53 16 -25 86 -51 111 -41 24 9 28
40 9 76 -9 18 -16 39 -15 45 2 7 -8 32 -22 56 l-26 43 50 37 c30 23 61 37 78
37 27 0 76 29 94 55 4 5 8 19 8 31 0 11 16 35 35 54 l34 33 51 -31 c28 -18 54
-32 57 -32 3 0 14 -11 25 -25 35 -45 118 -27 118 26 0 32 -36 59 -77 59 -25 0
-48 8 -68 24 l-30 25 23 16 c12 9 22 25 22 36 0 34 70 108 112 120 48 13 77
52 59 81 -10 16 -8 25 17 58 l28 39 37 -30 c20 -17 41 -28 46 -25 5 3 14 -7
21 -23 17 -42 90 -52 104 -15 13 35 -40 104 -80 104 -12 0 -36 14 -54 30 -22
20 -27 30 -17 30 9 0 28 5 42 12 28 13 35 55 10 64 -12 5 -9 17 16 67 39 78
56 97 86 97 25 0 30 24 14 65 -9 22 25 135 40 135 5 0 9 5 9 11 0 6 9 23 21
37 14 18 20 39 18 67 -3 65 -2 66 26 53 14 -6 25 -17 25 -23 0 -18 34 -45 58
-45 53 0 71 78 28 119 -14 13 -30 21 -37 19 -15 -5 -69 39 -69 56 0 5 10 20
21 32 24 26 37 101 21 130 -14 26 8 226 24 216 6 -4 14 -17 18 -29 15 -49 96
-16 96 39 0 23 -29 50 -47 44 -46 -18 -82 63 -83 184 0 41 -7 125 -15 185 -8
61 -15 113 -15 118 0 18 46 5 55 -15 19 -44 95 -25 95 23 0 24 -50 61 -73 55
-10 -2 -31 3 -48 12 -23 14 -29 24 -29 51 0 22 -8 44 -23 60 -35 39 -88 208
-83 267 3 45 1 52 -30 81 l-34 31 30 7 c17 4 30 11 30 17 0 6 8 4 18 -5 19
-17 67 -22 96 -11 24 9 20 57 -7 82 -29 27 -74 28 -101 3 -12 -10 -39 -22 -61
-25 l-40 -7 -33 66 c-17 36 -32 81 -32 99 0 37 -21 66 -49 66 -9 0 -25 13 -34
29 -10 17 -44 66 -77 110 l-59 80 35 20 c19 12 48 21 64 21 31 0 60 22 60 47
0 21 -58 73 -82 73 -11 0 -36 -18 -55 -40 -39 -43 -53 -49 -53 -24 0 9 -15 31
-34 50 -28 28 -39 33 -63 28 -25 -5 -35 2 -93 64 -36 38 -74 84 -85 103 -15
25 -31 37 -60 44 -61 16 -85 33 -85 60 0 22 -28 48 -47 44 -17 -4 -108 38
-182 85 l-54 34 31 7 c18 3 34 11 37 16 4 5 17 9 30 9 36 0 57 27 50 64 -10
44 -38 69 -75 68 -41 -1 -60 -18 -60 -53 0 -20 -5 -29 -15 -29 -9 0 -27 -12
-40 -26 l-24 -26 -79 36 c-44 20 -82 36 -86 36 -4 0 -22 15 -40 33 -28 28 -39
33 -69 29 -58 -7 -133 16 -152 45 -15 23 -22 25 -64 19 l-46 -6 25 23 c14 12
36 29 49 37 32 21 31 65 -2 98 -23 22 -31 25 -54 16 -23 -8 -29 -17 -33 -50
-3 -27 -16 -53 -37 -78 l-33 -36 -66 10 c-51 8 -71 17 -88 37 -23 26 -23 26
-87 13 -64 -13 -234 -18 -245 -7 -9 9 36 62 69 81 33 21 36 62 6 100 -24 30
-50 33 -99 8z m94 -35 c13 -35 0 -58 -39 -72 -24 -8 -30 -6 -56 23 -16 17 -26
38 -23 46 8 20 45 35 79 33 23 -2 32 -9 39 -30z m-668 -95 c6 -4 14 -16 18
-28 7 -23 -6 -38 -42 -47 -24 -6 -43 17 -35 43 3 8 6 21 8 28 5 13 34 16 51 4z
m908 -58 c35 -13 12 -24 -51 -24 -69 0 -77 7 -21 20 44 11 54 11 72 4z m-228
-65 c4 -7 21 -9 43 -5 35 5 37 4 63 -42 14 -26 29 -62 33 -79 18 -86 115 -79
115 8 0 39 -26 69 -61 69 -9 0 -21 11 -27 25 -11 25 -11 25 33 25 33 0 50 -6
65 -22 19 -21 30 -23 128 -23 106 -1 222 -24 222 -44 0 -5 13 -12 29 -16 27
-6 30 -11 41 -73 19 -111 19 -111 46 -118 39 -10 79 24 79 67 0 25 -6 36 -22
44 -12 5 -24 20 -26 33 -4 22 -2 24 27 18 17 -4 32 -10 34 -15 10 -30 33 -43
88 -50 78 -11 159 -52 179 -90 12 -24 23 -31 62 -37 53 -8 157 -68 151 -86 -3
-7 -19 -16 -36 -20 -21 -6 -40 -22 -57 -47 -13 -21 -37 -48 -53 -60 l-29 -20
-20 22 c-12 12 -24 37 -28 54 -3 18 -16 40 -28 48 -29 20 -83 20 -91 -1 -11
-28 2 -49 49 -79 25 -15 43 -30 40 -33 -3 -3 2 -13 11 -23 19 -22 14 -32 -38
-70 -26 -18 -53 -29 -75 -29 -46 0 -73 -16 -73 -43 0 -16 -13 -29 -49 -49 -26
-15 -54 -34 -61 -43 -9 -11 -23 -13 -50 -9 -31 5 -42 2 -60 -16 -12 -12 -20
-29 -17 -39 4 -17 1 -22 -47 -59 l-29 -22 -24 22 c-12 12 -23 31 -23 42 -1 31
-23 55 -58 62 -24 5 -33 2 -38 -10 -10 -26 4 -61 29 -75 21 -11 37 -38 51 -87
10 -33 -47 -77 -86 -69 -41 9 -82 -18 -74 -50 5 -20 -2 -29 -39 -54 -26 -17
-59 -31 -75 -31 -21 0 -34 -8 -47 -27 -20 -32 -52 -63 -65 -63 -10 0 -12 25
-9 106 3 54 0 63 -20 78 -56 39 -91 -3 -63 -74 9 -22 19 -40 23 -40 4 0 7 -24
7 -53 l1 -54 -49 -23 c-26 -13 -50 -21 -51 -19 -2 2 -8 17 -15 33 -10 23 -17
27 -37 22 -14 -3 -36 -9 -49 -12 -21 -5 -23 -3 -19 20 8 41 -21 76 -62 76 -18
0 -37 -5 -40 -10 -4 -6 -10 -8 -15 -5 -16 10 -40 68 -40 96 0 33 -25 44 -65
29 -53 -20 -54 13 -2 60 24 21 31 37 35 78 5 56 -7 82 -38 82 -27 0 -69 -49
-76 -89 -3 -20 -11 -51 -17 -69 -10 -29 -15 -32 -37 -27 -40 10 -52 26 -47 59
3 17 0 39 -5 49 -11 21 -56 23 -64 2 -9 -22 -30 -18 -65 13 -28 25 -30 31 -20
51 25 46 -11 77 -59 51 -13 -7 -27 -6 -44 2 -22 9 -26 18 -26 53 0 38 -4 44
-31 58 -36 17 -27 27 33 32 55 6 78 28 78 77 0 42 -22 59 -67 50 -22 -4 -63
-49 -63 -70 0 -14 -73 -60 -87 -55 -8 3 -11 14 -7 29 4 15 0 34 -11 50 -13 21
-22 25 -45 21 -17 -4 -42 1 -66 13 -21 11 -44 20 -51 20 -7 0 -13 9 -13 21 0
42 -18 59 -63 59 -35 0 -47 6 -74 35 -41 45 -40 51 10 54 9 0 23 13 30 29 12
28 19 35 76 67 20 11 56 33 81 47 27 16 59 26 79 26 26 -1 39 5 53 25 11 15
26 27 33 27 21 0 63 -63 63 -95 0 -64 85 -86 126 -32 19 26 19 30 5 55 -8 15
-29 32 -47 38 -18 5 -45 22 -59 37 l-27 26 28 11 c15 5 37 10 48 10 11 0 35 9
52 19 32 20 302 92 311 83 12 -12 -10 -22 -47 -22 -44 0 -48 -7 -7 -13 13 -3
31 -1 40 4 12 6 25 -2 51 -29 19 -20 38 -45 41 -55 4 -9 18 -22 31 -29 20 -9
30 -8 51 6 48 32 21 106 -39 106 -10 0 -29 11 -41 24 l-22 24 53 7 c32 4 61 2
73 -4 27 -15 56 -14 71 3 19 24 193 36 206 15z m41 5 c-3 -3 -12 -4 -19 -1 -8
3 -5 6 6 6 11 1 17 -2 13 -5z m-263 -16 c-15 -7 -28 -7 -40 1 -16 9 -12 10 21
10 35 0 37 -2 19 -11z m807 -5 c13 -15 11 -16 -11 -10 -14 4 -31 7 -38 7 -7 0
-10 5 -7 10 10 16 41 12 56 -7z m-1171 -3 c-8 -5 -22 -9 -30 -9 -10 0 -8 3 5
9 27 12 43 12 25 0z m970 -12 c10 -6 -3 -8 -38 -5 -29 2 -58 9 -65 16 -14 14
79 4 103 -11z m-162 -47 c8 -5 12 -23 10 -47 -3 -33 -7 -39 -29 -42 -19 -2
-28 3 -37 23 -16 35 -15 45 6 61 20 16 32 17 50 5z m583 -7 c12 -15 11 -16
-11 -9 -46 14 -58 24 -29 25 15 0 33 -7 40 -16z m406 -11 c5 -10 8 -29 8 -43
0 -33 -41 -41 -62 -11 -8 12 -21 21 -29 21 -17 0 -17 5 -4 31 14 25 76 27 87
2z m-540 1 c-3 -3 -12 -4 -19 -1 -8 3 -5 6 6 6 11 1 17 -2 13 -5z m-1551 -13
c-3 -5 -15 -11 -26 -14 -17 -4 -19 -3 -9 9 12 15 44 20 35 5z m1775 -66 l34
-16 -35 7 c-19 3 -39 10 -44 15 -15 14 8 11 45 -6z m-1951 -15 c-24 -15 -37
-11 -16 5 11 8 22 12 25 9 3 -3 -1 -9 -9 -14z m1800 14 c0 -8 -19 -13 -24 -6
-3 5 1 9 9 9 8 0 15 -2 15 -3z m48 -31 c20 -38 -32 -90 -67 -68 -17 10 -14 66
3 59 7 -3 16 2 19 10 8 21 34 20 45 -1z m-1803 -13 c-3 -5 -14 -10 -23 -10
-15 0 -15 2 -2 10 20 13 33 13 25 0z m217 -37 c22 -20 23 -41 1 -65 -21 -23
-34 -23 -67 3 -32 25 -34 57 -3 69 33 13 48 12 69 -7z m-437 -23 c-3 -5 -15
-15 -26 -21 -19 -10 -20 -9 -9 10 6 12 18 21 26 21 8 0 12 -4 9 -10z m2384
-27 c2 -2 -5 -3 -17 -3 -12 0 -26 9 -32 21 -11 20 -11 20 17 3 15 -10 30 -19
32 -21z m206 -63 c3 -5 -1 -10 -9 -10 -8 0 -18 5 -21 10 -3 6 1 10 9 10 8 0
18 -4 21 -10z m-2660 -19 c-3 -6 -14 -11 -23 -11 -15 1 -15 2 2 15 21 16 32
13 21 -4z m-202 -84 c-64 -51 -63 -51 -63 -33 0 24 37 56 66 56 l26 0 -29 -23z
m117 -65 c0 -7 11 -28 25 -46 26 -34 28 -67 7 -88 -17 -17 -15 -45 3 -52 8 -3
15 -14 15 -25 0 -11 11 -44 24 -73 15 -33 22 -63 19 -80 -5 -28 19 -59 78 -99
19 -13 24 -26 25 -67 2 -48 1 -50 -27 -56 -16 -3 -56 -3 -88 0 -91 10 -127
-25 -85 -84 21 -31 112 -32 139 -2 27 30 68 26 82 -7 21 -52 25 -74 14 -87
-16 -19 -3 -44 30 -61 22 -12 29 -24 34 -60 7 -42 5 -67 -11 -156 -7 -40 8
-79 31 -79 19 0 39 -39 37 -73 -2 -21 4 -30 23 -39 l26 -12 -28 -15 c-16 -8
-48 -13 -73 -12 -34 2 -53 -3 -73 -19 -31 -25 -34 -49 -9 -79 15 -19 23 -21
66 -15 30 4 58 16 74 31 14 12 28 23 33 23 4 0 14 3 22 6 10 4 19 -9 31 -45
23 -70 20 -86 -16 -113 -18 -12 -43 -34 -55 -48 -16 -19 -31 -25 -60 -25 -37
0 -38 -1 -38 -38 0 -30 -6 -44 -28 -63 -15 -13 -39 -24 -52 -24 -26 0 -55 -24
-55 -44 0 -25 -35 -53 -73 -59 -46 -7 -67 -22 -67 -48 0 -12 -10 -23 -25 -29
-22 -9 -30 -5 -62 31 -21 23 -42 51 -48 62 -12 25 -50 47 -82 47 -35 0 -42
-44 -12 -76 12 -13 29 -24 36 -24 17 0 73 -60 73 -78 0 -7 -4 -11 -8 -8 -5 3
-21 -4 -38 -15 -17 -11 -46 -19 -71 -19 -45 0 -63 -17 -60 -55 1 -13 -18 -33
-62 -63 -59 -40 -69 -44 -110 -39 -25 3 -54 1 -63 -4 -22 -12 -24 -62 -2 -80
14 -11 12 -15 -13 -39 l-28 -27 -22 31 c-13 16 -23 40 -23 52 0 29 -25 54 -53
54 -26 0 -67 -26 -67 -42 0 -19 32 -48 52 -48 11 0 18 -7 18 -20 0 -10 5 -31
12 -45 10 -23 10 -28 -6 -37 -9 -5 -32 -22 -49 -38 -18 -15 -48 -36 -67 -47
-19 -11 -45 -34 -56 -51 l-22 -32 -11 45 c-8 31 -8 51 -1 65 5 10 7 26 4 34
-10 26 -22 18 -16 -11 2 -16 2 -26 -1 -23 -3 3 -7 19 -10 35 -3 17 -10 44 -15
61 -5 17 -13 58 -17 92 l-7 62 34 2 c18 0 45 2 61 2 15 1 37 11 49 23 19 19
20 26 10 48 -7 14 -19 28 -27 31 -21 9 -65 -4 -65 -19 0 -7 -15 -12 -40 -12
l-40 -1 0 61 c0 33 -3 110 -6 170 l-7 110 78 -1 c64 -1 81 2 96 17 23 23 24
33 2 54 -13 14 -28 16 -71 11 -30 -4 -63 -11 -73 -17 -17 -9 -19 -6 -19 41 0
76 21 193 38 212 10 12 13 29 9 54 -4 20 -1 56 5 80 l12 44 47 0 c27 0 51 -4
54 -10 9 -14 58 -13 73 2 18 18 14 53 -7 72 -16 14 -30 16 -73 11 l-53 -7 1
44 c1 56 22 123 46 144 10 10 18 29 18 45 0 34 55 159 71 159 6 0 8 7 5 16 -3
8 -2 12 4 9 10 -6 35 41 44 85 3 14 17 39 31 55 14 17 23 23 20 15 -4 -11 11
-24 54 -44 69 -33 114 -32 119 1 5 34 -15 63 -45 63 -36 0 -103 21 -103 33 0
17 159 224 185 241 14 9 25 22 25 29 0 6 20 35 44 62 l44 50 29 -17 c17 -10
29 -27 31 -42 4 -31 43 -60 70 -52 33 11 55 43 48 71 -4 14 -12 25 -20 25 -7
0 -25 9 -39 20 -23 19 -25 24 -15 53 14 43 23 52 93 108 l59 47 13 -37 c7 -20
13 -42 13 -49z m2710 80 c0 -27 -48 -145 -76 -187 -28 -40 -33 -55 -28 -85 6
-39 -27 -110 -51 -110 -8 0 -21 -10 -30 -22 -14 -21 -14 -24 2 -38 11 -9 18
-29 19 -50 l0 -36 -45 7 c-25 3 -54 9 -63 13 -21 9 -68 -34 -68 -61 0 -54 61
-81 97 -44 10 10 31 21 47 25 l28 7 -22 -35 c-12 -20 -19 -40 -16 -45 3 -5 -3
-20 -14 -34 -11 -14 -20 -30 -20 -35 0 -6 -13 -13 -29 -17 -16 -3 -32 -13 -35
-21 -7 -18 10 -54 24 -54 6 0 10 -23 10 -51 0 -46 -4 -55 -36 -84 -29 -27 -34
-37 -28 -59 3 -14 1 -39 -5 -54 -10 -25 -16 -27 -64 -27 -31 0 -55 5 -60 13
-11 17 -73 15 -91 -4 -22 -21 -20 -31 9 -60 18 -18 35 -25 58 -24 18 1 50 2
71 1 l40 -1 -26 -27 c-32 -36 -40 -60 -28 -83 7 -13 5 -30 -9 -62 -14 -33 -27
-47 -60 -61 -23 -10 -49 -30 -58 -43 -15 -23 -14 -26 6 -48 19 -20 21 -28 12
-45 -17 -31 -40 -25 -57 14 -10 24 -21 35 -34 35 -18 0 -19 3 -10 21 7 11 20
29 31 40 26 26 23 96 -4 113 -15 9 -23 6 -43 -17 -13 -15 -24 -37 -24 -47 0
-11 -5 -30 -11 -44 l-11 -24 -43 32 c-23 17 -46 44 -51 61 -8 26 -13 30 -47
30 -31 0 -39 4 -42 23 -16 76 -13 72 -58 72 -33 0 -49 6 -67 25 -13 14 -28 25
-32 25 -17 0 -33 25 -33 50 0 20 -6 26 -29 28 l-28 4 22 23 c13 14 27 22 32
19 26 -16 97 78 84 112 -14 36 -86 6 -127 -52 -23 -34 -32 -39 -67 -39 -27 0
-38 4 -35 13 3 6 2 24 -1 38 -7 25 -10 26 -50 21 -39 -6 -66 4 -66 23 0 14 97
53 134 54 36 1 43 5 58 35 9 18 33 45 52 59 l36 25 52 -24 c29 -13 63 -34 77
-47 31 -29 66 -37 97 -23 29 13 30 26 4 69 -16 27 -26 32 -57 32 -21 1 -51 6
-66 13 l-29 12 46 42 c26 23 65 48 88 55 30 9 44 20 54 42 7 17 26 44 43 60
24 23 36 28 60 23 36 -7 53 10 49 50 -2 22 1 29 19 31 12 2 27 10 33 18 7 8
19 14 27 14 21 0 93 -39 93 -50 0 -6 11 -15 25 -22 19 -9 29 -8 50 6 46 30 24
96 -33 96 l-27 0 25 13 c18 9 25 21 25 41 0 23 8 34 40 52 22 13 56 23 76 24
39 0 52 10 64 50 11 35 32 53 74 59 30 5 38 12 46 38 14 43 105 125 105 95z
m50 -43 c0 -9 -9 -27 -21 -40 l-20 -24 6 44 c3 24 8 48 12 54 7 11 23 -12 23
-34z m138 -61 c12 -15 13 -128 1 -128 -15 0 -17 -46 -3 -68 19 -28 77 -57 98
-49 26 10 36 48 20 80 -8 15 -19 27 -24 27 -12 0 -13 37 -1 44 9 6 159 -154
200 -212 12 -18 27 -49 33 -69 12 -45 53 -100 80 -109 17 -5 15 -10 -23 -45
-23 -21 -50 -39 -59 -39 -49 0 -89 -71 -57 -99 44 -36 127 -15 127 32 0 19 25
41 71 65 13 6 53 -73 51 -100 -3 -35 20 -80 53 -106 14 -11 39 -53 56 -94 l30
-73 -22 -17 c-12 -10 -38 -18 -59 -18 -43 0 -59 -14 -67 -63 -4 -29 -1 -37 23
-56 36 -28 54 -24 83 22 l25 38 14 -36 c8 -19 17 -35 21 -35 55 -3 108 -236
89 -390 -2 -19 -1 -49 3 -67 9 -43 -14 -51 -53 -18 -35 30 -78 32 -102 6 -25
-28 -16 -62 22 -88 29 -19 42 -21 97 -16 63 6 64 6 71 -22 8 -34 -2 -175 -18
-244 -13 -59 -34 -67 -70 -26 -32 37 -82 35 -103 -5 -21 -41 -11 -69 32 -87
28 -11 41 -12 63 -3 36 15 70 -1 70 -33 -1 -54 -28 -157 -48 -182 -17 -22 -22
-40 -21 -84 1 -31 -4 -68 -10 -83 -10 -27 -10 -27 -43 -11 -48 23 -68 43 -68
68 0 31 -34 63 -76 71 l-35 6 50 47 c57 53 66 90 32 132 -19 23 -21 23 -48 9
-19 -11 -33 -30 -43 -62 -21 -65 -46 -91 -74 -76 -11 6 -23 14 -26 18 -3 4
-24 17 -48 29 -29 15 -47 32 -54 51 -10 29 -16 33 -75 45 -44 9 -74 51 -60 83
8 18 6 28 -9 49 -33 43 -50 50 -82 32 -25 -15 -30 -14 -69 5 -25 13 -43 29
-45 41 -2 14 -15 23 -45 29 -24 6 -43 14 -43 18 0 5 14 22 32 38 25 23 31 37
32 72 1 40 -1 43 -27 46 -38 5 -65 -21 -79 -76 -6 -24 -16 -46 -23 -49 -25 -9
-111 46 -128 82 -13 28 -22 35 -46 35 -35 0 -58 31 -63 86 l-3 39 -55 0 c-68
0 -80 8 -80 49 0 20 -8 40 -21 51 -17 16 -25 17 -51 7 -29 -11 -29 -10 -14 7
9 10 16 28 16 42 0 13 7 35 15 49 8 14 20 38 26 53 6 16 29 39 50 53 37 23 51
55 30 68 -5 4 -3 27 6 53 8 27 16 56 18 66 6 25 15 37 29 37 7 0 23 11 36 24
17 20 21 31 15 53 -4 15 -8 43 -8 62 -2 29 2 34 22 38 48 7 57 25 36 75 -6 15
-2 16 32 11 21 -3 43 -9 48 -13 6 -4 22 -10 38 -14 22 -5 32 -1 52 20 32 34
32 59 0 80 -17 11 -34 14 -57 8 -27 -6 -119 -7 -125 -1 -1 1 1 14 4 28 3 18
17 31 46 45 48 22 55 35 31 58 -15 16 -15 20 2 59 11 23 18 45 16 50 -1 5 9
22 23 39 30 36 31 45 4 74 -30 32 -19 74 19 74 33 0 49 10 53 33 4 17 8 16 52
-7 26 -14 60 -26 76 -26 74 0 83 71 10 90 -22 6 -49 8 -59 5 -11 -4 -30 1 -42
9 -12 9 -30 16 -39 16 -15 0 -16 6 -7 43 5 23 11 47 12 54 1 6 24 35 50 63 41
44 47 56 42 81 l-6 30 58 -45 c32 -24 63 -50 70 -58z m-8 80 c30 -32 24 -45
-7 -17 -16 13 -32 27 -37 31 -6 5 -3 8 7 8 9 0 25 -10 37 -22z m-2798 -64 c22
-24 54 -46 77 -52 21 -7 44 -19 51 -27 7 -8 20 -15 29 -15 10 0 33 -18 51 -40
18 -22 37 -40 42 -40 8 0 34 -20 72 -55 107 -99 136 -124 166 -149 19 -15 30
-25 24 -22 -6 3 -30 -17 -54 -45 -38 -46 -42 -54 -37 -91 7 -52 18 -63 48 -48
58 30 89 86 59 105 -6 4 -5 13 2 25 11 17 13 17 39 -11 15 -16 34 -29 43 -29
28 0 65 -31 82 -67 22 -44 48 -58 83 -43 18 7 36 8 52 2 13 -5 26 -9 29 -9 3
0 21 -7 41 -17 35 -16 37 -19 32 -56 -5 -36 -4 -39 23 -46 16 -3 36 -16 46
-27 14 -19 15 -25 3 -48 -8 -15 -21 -29 -29 -32 -18 -7 -66 -80 -66 -101 0
-60 105 -24 140 49 11 23 19 49 18 56 -3 16 56 15 111 -3 l34 -11 -30 -16
c-17 -9 -44 -27 -60 -41 -15 -14 -46 -39 -68 -55 -22 -17 -42 -32 -45 -35 -3
-3 -36 -27 -74 -54 -37 -27 -87 -68 -111 -92 -27 -29 -51 -44 -67 -44 -27 0
-52 -23 -62 -57 -9 -28 -26 -30 -26 -4 0 11 -4 23 -10 26 -5 3 -10 17 -10 30
0 13 -3 30 -6 39 -9 23 -69 57 -88 50 -26 -10 -19 -58 13 -93 16 -17 36 -50
44 -74 14 -41 13 -43 -9 -60 -12 -9 -29 -17 -36 -17 -8 0 -28 -16 -47 -35 -18
-19 -39 -36 -47 -36 -27 -3 -32 -4 -40 -11 -16 -16 -19 -6 -16 46 4 59 -15
108 -49 129 -26 15 -62 84 -49 92 19 12 10 37 -18 47 -22 9 -31 21 -40 55 -7
24 -12 47 -12 52 0 10 45 20 107 25 23 2 50 9 59 17 25 20 37 59 23 75 -21 26
-61 16 -161 -37 -27 -14 -29 -12 -22 26 4 21 2 41 -5 49 -27 33 -60 111 -51
120 14 14 12 72 -2 84 -7 5 -22 12 -33 14 -21 4 -23 25 -9 116 6 42 4 46 -34
80 -36 33 -62 70 -62 87 0 10 41 -5 70 -25 59 -42 120 -29 120 25 0 39 -35 55
-121 55 l-77 0 11 35 c9 29 7 38 -7 54 -10 11 -28 21 -40 23 -25 4 -33 41 -15
74 11 21 8 30 -29 85 -69 103 -54 114 30 23z m88 2 c0 -19 -4 -23 -19 -19 -11
3 -27 14 -37 24 -17 18 -16 19 19 19 32 0 37 -3 37 -24z m2410 -16 c0 -5 -8
-10 -17 -10 -15 0 -16 2 -3 10 19 12 20 12 20 0z m-2780 -45 c0 -8 -7 -15 -16
-15 -14 0 -14 3 -4 15 7 8 14 15 16 15 2 0 4 -7 4 -15z m556 -39 c3 -8 4 -22
2 -31 -3 -15 -6 -14 -30 5 -16 12 -28 26 -28 31 0 15 50 10 56 -5z m2104 -5
c0 -16 -30 -41 -48 -41 -12 0 -9 7 13 25 34 28 35 28 35 16z m-2958 -28 c22
-20 23 -33 3 -33 -8 0 -24 -6 -35 -12 -16 -10 -23 -10 -36 4 -13 12 -14 20 -5
37 14 25 47 27 73 4z m3119 -20 c-12 -20 -14 -14 -5 12 4 9 9 14 11 11 3 -2 0
-13 -6 -23z m517 -7 c13 -19 22 -43 20 -54 -2 -15 -12 -9 -51 35 l-49 53 29 0
c21 0 34 -9 51 -34z m-3284 8 c24 -9 19 -31 -9 -50 -20 -13 -28 -14 -40 -4
-20 16 -19 30 3 46 20 15 25 16 46 8z m2446 -8 c-25 -15 -45 -12 -35 5 4 5 18
9 33 9 l27 -1 -25 -13z m1018 -6 c29 -27 28 -48 -2 -62 -22 -9 -28 -7 -50 18
-26 30 -31 45 -19 57 13 14 50 7 71 -13z m-3191 -56 c6 -17 -5 -64 -15 -64 -8
0 -32 58 -32 77 0 15 40 3 47 -13z m373 -15 c20 -36 6 -41 -29 -9 l-35 30 27
0 c16 0 30 -8 37 -21z m1780 2 c0 -14 -12 -22 -44 -30 -25 -6 -48 -11 -52 -11
-18 0 63 52 94 59 1 1 2 -7 2 -18z m367 1 c1 -9 3 -24 5 -32 2 -10 -6 -16 -24
-18 l-26 -3 16 35 c18 40 27 45 29 18z m178 -6 c11 -8 16 -19 12 -30 -8 -20
-65 -22 -92 -2 -16 12 -17 16 -6 30 16 20 61 21 86 2z m165 0 c0 -3 -4 -8 -10
-11 -5 -3 -10 -1 -10 4 0 6 5 11 10 11 6 0 10 -2 10 -4z m-3499 -78 c-17 -24
-42 -56 -55 -73 l-25 -30 9 38 c8 39 64 107 88 107 8 0 1 -16 -17 -42z m2604
22 c-3 -6 -19 -17 -36 -25 -23 -12 -29 -13 -29 -2 0 7 5 18 12 25 15 15 62 16
53 2z m-237 -12 c7 -7 12 -22 12 -34 0 -17 -5 -21 -19 -17 -26 7 -55 39 -46
52 8 15 38 14 53 -1z m-1713 -8 c3 -5 -1 -10 -9 -10 -9 0 -16 5 -16 10 0 6 4
10 9 10 6 0 13 -4 16 -10z m2153 1 c20 -12 10 -45 -14 -49 -25 -4 -49 22 -40
43 6 16 33 20 54 6z m-2014 -11 c16 -6 26 -17 26 -30 0 -17 -7 -20 -38 -20
-46 0 -51 3 -44 35 5 27 17 30 56 15z m2266 3 c-1 -18 -18 -35 -24 -24 -4 6
-4 16 -1 21 7 12 25 13 25 3z m-1914 -25 c-3 -13 -6 -27 -6 -32 0 -5 -11 1
-25 14 -27 25 -20 40 19 40 14 0 17 -5 12 -22z m-506 -67 c-1 -13 -30 34 -30
48 0 9 7 3 15 -13 8 -15 15 -31 15 -35z m868 -7 c4 -54 -29 -99 -60 -83 -17 9
-19 17 -15 46 7 38 43 86 61 80 6 -2 12 -21 14 -43z m1042 26 c0 -11 -7 -20
-15 -20 -17 0 -18 2 -9 24 9 23 24 20 24 -4z m557 -11 c2 -8 -2 -21 -7 -29 -8
-12 -11 -13 -19 -1 -11 17 -2 53 13 48 6 -2 12 -10 13 -18z m690 -75 c-7 -8
-57 56 -57 74 0 9 13 -2 31 -26 17 -24 29 -45 26 -48z m-2499 17 c3 -26 0 -32
-14 -29 -27 5 -40 33 -24 52 19 24 35 14 38 -23z m1656 10 c3 -5 3 -23 0 -40
-5 -24 -12 -31 -30 -31 -28 0 -43 42 -24 65 14 17 46 20 54 6z m-1846 -53 c2
-19 -5 -31 -27 -48 -17 -11 -35 -18 -41 -15 -17 11 -12 83 7 93 25 15 58 -2
61 -30z m2804 -32 c10 -14 10 -36 1 -36 -5 0 -16 13 -25 29 -15 28 -15 29 0
24 9 -4 20 -11 24 -17z m-4079 -23 c-9 -16 -18 -29 -19 -31 -1 -2 -5 1 -8 6
-6 11 21 52 35 52 5 0 2 -12 -8 -27z m2457 19 c0 -5 -9 -17 -20 -27 -18 -17
-20 -17 -26 0 -4 10 -1 21 7 26 18 11 39 12 39 1z m-949 -32 c18 -15 20 -19 8
-20 -9 0 -24 9 -34 20 -23 26 -4 26 26 0z m610 0 c27 -15 27 -80 0 -80 -21 0
-40 42 -33 73 4 20 7 20 33 7z m-1356 -22 c14 -6 26 -17 27 -25 0 -7 1 -18 2
-25 1 -15 -52 -30 -85 -23 -27 6 -56 52 -42 66 4 4 22 9 38 12 17 2 31 5 32 6
1 0 14 -4 28 -11z m952 -3 c9 -25 -2 -27 -28 -6 l-24 20 23 1 c12 0 25 -7 29
-15z m-1497 -5 c0 -5 -5 -10 -11 -10 -5 0 -7 5 -4 10 3 6 8 10 11 10 2 0 4 -4
4 -10z m3718 -10 c26 -41 -21 -80 -72 -60 -37 14 -31 40 14 62 43 22 43 22 58
-2z m-710 -8 c3 -11 -46 -37 -54 -29 -2 2 4 13 14 25 18 23 33 24 40 4z
m-2274 -49 c3 -8 2 -22 -3 -31 -8 -15 -11 -13 -20 11 -6 16 -11 32 -11 37 0
14 28 0 34 -17z m775 -42 c-16 -5 -33 15 -24 30 6 9 12 7 22 -7 9 -13 10 -20
2 -23z m1392 26 c-1 -4 -1 -15 -1 -24 0 -16 -1 -16 -16 -1 -9 9 -13 21 -9 28
7 12 27 10 26 -3z m998 -47 l22 -45 -26 28 c-14 15 -25 38 -25 49 0 26 2 24
29 -32z m-2265 24 c9 -8 16 -27 16 -41 0 -22 -3 -24 -27 -18 -16 3 -37 15 -48
26 -20 20 -20 20 -1 35 25 18 41 18 60 -2z m-1969 -73 c-17 -35 -35 -41 -35
-12 0 16 39 54 48 46 2 -2 -4 -17 -13 -34z m2329 14 c-4 -8 -13 -15 -20 -15
-12 0 -12 3 -2 15 17 19 29 19 22 0z m971 5 c3 -5 1 -10 -4 -10 -6 0 -11 5
-11 10 0 6 2 10 4 10 3 0 8 -4 11 -10z m-3380 -20 c16 -18 16 -20 2 -26 -9 -3
-19 -14 -22 -25 -8 -26 -27 -24 -54 5 l-23 24 21 21 c26 26 53 27 76 1z m1135
-11 c0 -5 -7 -6 -15 -3 -8 4 -15 13 -15 21 0 13 3 13 15 3 8 -7 15 -16 15 -21z
m1040 -3 c0 -9 -7 -12 -20 -9 -11 3 -20 9 -20 14 0 5 9 9 20 9 11 0 20 -6 20
-14z m1180 -57 c0 -11 -7 -22 -15 -26 -23 -8 -27 1 -14 30 13 29 29 27 29 -4z
m1080 12 c5 -11 10 -32 9 -48 0 -27 -1 -26 -19 12 -10 22 -19 43 -19 48 -2 15
19 6 29 -12z m-1887 -68 c-22 -43 -39 -50 -68 -29 -17 12 -18 16 -5 32 24 28
73 55 84 44 5 -5 1 -24 -11 -47z m-1188 19 c-13 -11 -65 -33 -65 -27 0 2 12
11 28 19 30 17 52 21 37 8z m855 -14 c19 -9 45 -27 56 -41 12 -13 48 -42 80
-63 33 -21 61 -42 62 -46 2 -5 10 -8 17 -8 17 0 26 -25 13 -38 -5 -5 -8 -20
-6 -33 3 -22 9 -24 63 -27 51 -3 65 -8 92 -34 28 -27 30 -33 21 -59 -5 -16
-23 -42 -39 -57 -25 -23 -29 -35 -29 -77 0 -56 21 -95 50 -95 11 0 35 14 55
31 27 24 35 39 35 65 0 20 -6 37 -16 42 -15 8 -15 12 0 40 l16 32 40 -26 c22
-14 48 -41 58 -59 13 -21 30 -34 51 -38 18 -4 38 -12 45 -19 7 -7 25 -22 39
-33 15 -11 27 -27 27 -36 0 -8 11 -26 25 -39 32 -30 32 -42 -7 -86 -30 -34
-31 -38 -19 -67 22 -54 19 -60 -27 -70 -32 -6 -45 -15 -53 -33 -14 -39 -11
-66 12 -90 28 -30 19 -63 -16 -56 -14 2 -39 -2 -57 -9 -24 -10 -33 -10 -36 -1
-5 17 -87 15 -102 -3 -14 -17 -5 -52 19 -64 9 -5 52 -9 95 -8 l77 2 -6 -25
c-4 -14 -15 -34 -26 -46 -22 -23 -24 -46 -7 -73 8 -14 8 -29 -3 -65 -7 -25
-17 -46 -21 -46 -4 0 -17 -10 -28 -22 -18 -19 -21 -31 -16 -70 4 -28 2 -49 -4
-53 -5 -3 -10 -15 -10 -26 0 -25 -34 -25 -67 1 -28 22 -73 26 -104 10 -10 -6
-37 -12 -59 -14 -39 -3 -40 -2 -41 28 -1 17 -1 48 0 68 2 31 -3 44 -29 70
l-33 32 -18 -23 c-26 -32 -24 -73 5 -100 29 -27 25 -70 -8 -72 -11 -1 -31 -3
-44 -4 -13 -1 -26 4 -29 11 -7 18 -53 18 -79 0 -11 -8 -37 -18 -58 -21 -31 -6
-40 -4 -52 14 -21 29 -47 26 -87 -9 -43 -37 -113 -42 -142 -10 -22 24 -77 27
-95 5 -20 -25 -59 -19 -70 11 -12 31 7 61 53 84 34 16 71 78 62 102 -3 8 -17
21 -30 28 -31 17 -71 1 -84 -32 -5 -13 -13 -34 -18 -47 -8 -22 -10 -20 -36 31
-15 29 -27 68 -27 85 0 49 -15 78 -52 100 -19 11 -44 36 -55 56 -21 35 -21 36
-2 53 26 24 24 52 -6 66 -18 8 -24 16 -19 27 18 42 16 68 -9 87 -14 12 -27 35
-31 59 -4 22 -11 44 -14 50 -13 21 -9 35 16 52 15 9 36 16 48 15 31 -4 84 44
84 77 0 57 -58 70 -106 23 -59 -57 -60 -57 -98 -20 -19 18 -36 42 -37 53 -4
21 -1 22 68 9 39 -8 63 8 63 42 0 28 50 64 88 64 36 0 62 18 62 43 0 25 82
105 118 114 37 9 88 -6 127 -37 49 -39 73 -46 94 -26 15 15 14 19 -4 54 -16
30 -30 40 -67 51 -46 14 -64 31 -33 31 9 0 18 12 21 30 8 37 26 52 78 65 31 8
44 17 56 42 21 46 53 71 91 75 27 2 35 8 37 26 2 13 7 22 10 20 4 -2 23 -11
42 -20z m120 -13 c0 -14 -4 -25 -8 -25 -5 0 -19 11 -32 25 l-23 25 31 0 c27 0
32 -4 32 -25z m927 3 c-3 -8 -6 -5 -6 6 -1 11 2 17 5 13 3 -3 4 -12 1 -19z
m-1117 8 c0 -3 -4 -8 -10 -11 -5 -3 -10 -1 -10 4 0 6 5 11 10 11 6 0 10 -2 10
-4z m250 -54 c0 -15 -11 -21 -27 -15 -12 5 -12 7 -1 14 17 11 28 11 28 1z
m-2399 -33 c-5 -13 -10 -19 -10 -12 -1 15 10 45 15 40 3 -2 0 -15 -5 -28z
m3299 -8 c0 -26 -24 -60 -35 -50 -2 3 1 24 7 47 11 46 28 47 28 3z m-1270 5
c0 -10 -32 -36 -43 -36 -7 0 -1 9 13 20 26 21 30 23 30 16z m1073 -3 c2 -5 7
-20 11 -35 6 -26 4 -28 -22 -28 -17 0 -37 9 -48 21 -18 20 -18 21 1 35 20 15
51 19 58 7z m-1912 -79 c2 -7 0 -14 -6 -15 -6 -2 -11 16 -12 41 -1 39 -1 41 6
15 5 -16 10 -35 12 -41z m3177 49 c21 -42 -21 -99 -55 -77 -21 13 -27 36 -19
70 5 19 13 24 36 24 18 0 33 -7 38 -17z m-1868 -13 c0 -13 -20 -13 -40 0 -12
8 -9 10 13 10 15 0 27 -4 27 -10z m1965 -44 l14 -46 -25 16 c-29 20 -43 62
-23 75 17 10 18 10 34 -45z m-2575 -31 c-7 -8 -22 -15 -34 -15 -18 0 -17 2 9
19 34 21 44 19 25 -4z m600 17 c0 -5 12 -15 28 -22 l27 -13 -30 -8 c-16 -5
-36 -7 -42 -4 -14 5 -18 37 -6 48 9 10 23 9 23 -1z m693 -58 c-12 -28 -18 -34
-21 -21 -4 18 25 73 34 64 2 -2 -3 -21 -13 -43z m-3035 -7 c3 -27 1 -28 -30
-25 -27 2 -34 8 -36 30 -3 24 0 26 30 25 28 -2 33 -6 36 -30z m2518 -1 c3 -8
4 -22 2 -31 -3 -14 -6 -13 -25 5 -13 11 -23 25 -23 30 0 16 40 12 46 -4z
m1894 -64 c0 -32 -15 -18 -24 22 -6 26 -5 28 8 17 9 -8 16 -25 16 -39z m-4623
16 c-3 -8 -6 -5 -6 6 -1 11 2 17 5 13 3 -3 4 -12 1 -19z m1783 19 c0 -2 -12
-14 -26 -28 -25 -22 -26 -23 -15 -2 9 18 19 26 39 32 1 1 2 0 2 -2z m240 -19
c23 -25 27 -58 6 -58 -23 0 -76 49 -69 65 8 22 39 18 63 -7z m1240 -37 c0 -10
-7 -21 -15 -24 -12 -5 -12 -2 -3 18 13 30 18 31 18 6z m-435 -12 c11 -17 -1
-21 -15 -4 -8 9 -8 15 -2 15 6 0 14 -5 17 -11z m-1405 -65 c5 -21 10 -47 10
-57 0 -27 -17 -12 -23 20 -3 16 -10 46 -15 67 -9 34 -9 37 4 24 9 -8 20 -33
24 -54z m-152 17 c5 -31 -5 -39 -55 -47 -35 -5 -43 -3 -52 15 -17 32 18 63 67
59 30 -2 38 -7 40 -27z m-1251 -33 c-3 -7 -5 -2 -5 12 0 14 2 19 5 13 2 -7 2
-19 0 -25z m4725 15 c24 -21 23 -40 -2 -48 -26 -8 -37 -1 -42 30 -8 39 12 47
44 18z m-3052 -8 c-7 -8 -20 -15 -28 -15 -13 0 -12 3 4 15 25 19 40 19 24 0z
m1458 -25 c-23 -40 -41 -50 -54 -28 -7 12 48 68 66 68 6 0 0 -18 -12 -40z
m-461 18 c55 -20 57 -70 3 -101 -17 -10 -34 -16 -39 -13 -12 8 -23 88 -15 109
7 20 8 20 51 5z m208 -28 c3 -6 -1 -7 -9 -4 -18 7 -21 14 -7 14 6 0 13 -4 16
-10z m-2938 -63 c-3 -8 -8 -39 -12 -71 -6 -46 -10 -54 -21 -45 -18 15 -18 63
1 99 15 29 42 43 32 17z m1591 -4 c-2 -13 -14 -19 -43 -21 l-40 -2 35 20 c44
24 52 25 48 3z m3071 -121 c1 -26 -3 -41 -9 -37 -5 3 -10 32 -9 63 1 67 17 44
18 -26z m-3185 -26 c25 -49 32 -74 27 -90 -11 -27 4 -77 28 -96 14 -11 20 -30
22 -68 3 -61 -13 -82 -43 -55 -41 37 -144 -16 -131 -67 12 -45 133 -68 153
-29 18 32 50 20 65 -25 8 -21 18 -42 23 -45 9 -6 56 -77 79 -120 8 -13 11 -33
7 -44 -4 -13 3 -29 23 -51 33 -34 49 -70 58 -131 6 -40 5 -41 -22 -39 -15 1
-48 3 -73 3 -42 1 -46 3 -68 44 -12 23 -22 51 -22 62 0 28 -26 62 -60 80 -28
14 -30 14 -46 -9 -20 -32 -10 -84 20 -97 11 -6 29 -24 39 -40 16 -29 16 -30
-1 -25 -9 2 -33 8 -52 12 -19 3 -45 13 -58 22 -21 14 -25 13 -59 -11 l-36 -26
-29 30 c-44 44 -70 39 -110 -21 -19 -29 -30 -34 -63 -36 -27 -1 -46 4 -57 17
-22 22 -24 36 -3 19 20 -17 22 -15 30 55 6 53 4 63 -15 83 -28 30 -62 25 -74
-10 -7 -21 -6 -32 6 -45 8 -10 18 -42 21 -71 l6 -53 -51 5 c-28 2 -53 8 -57
13 -12 18 -37 21 -62 7 -32 -17 -58 -17 -93 1 -34 18 -65 19 -87 2 -10 -7 -35
-11 -58 -9 -40 4 -51 18 -32 37 16 16 29 91 19 109 -11 20 -51 21 -68 2 -6 -8
-10 -31 -9 -50 2 -19 0 -38 -4 -42 -4 -4 -7 -18 -7 -31 0 -20 -5 -23 -34 -23
-18 0 -39 7 -46 15 -7 8 -25 15 -40 15 -15 0 -33 -7 -40 -15 -7 -8 -27 -15
-46 -15 -18 0 -35 -4 -38 -9 -10 -15 -103 -11 -117 5 -10 12 -8 17 7 29 10 8
30 15 44 15 45 0 100 20 110 40 5 10 10 29 10 42 0 23 20 36 80 53 36 11 49
23 43 43 -2 11 8 31 26 49 l30 32 46 -20 c25 -11 49 -18 54 -15 5 3 16 -5 24
-18 19 -28 42 -35 83 -24 80 21 27 108 -66 108 -16 0 -32 5 -35 10 -4 6 9 10
33 10 47 0 67 19 59 58 -5 23 0 31 29 50 18 12 47 22 64 22 23 0 33 6 40 25 9
22 15 25 64 25 56 0 83 17 73 44 -4 9 1 17 12 21 9 3 27 14 39 25 21 20 22 20
71 1 28 -10 52 -16 55 -13 3 3 14 -2 23 -11 43 -38 118 -24 118 22 0 37 -47
66 -108 67 -72 1 -72 1 -39 29 17 14 42 25 56 25 34 0 76 41 70 67 -6 23 21
50 56 55 18 2 26 10 28 28 4 28 31 55 44 42 4 -4 23 -39 42 -76z m214 42 c-2
-23 -11 -37 -31 -48 -27 -14 -29 -14 -48 9 -20 24 -20 24 2 48 14 14 34 23 51
23 27 0 29 -3 26 -32z m1548 18 c3 -8 4 -24 2 -35 -3 -20 -4 -20 -36 7 -18 15
-29 31 -26 35 13 12 54 7 60 -7z m-12 -97 c-8 -13 51 -69 73 -69 11 0 24 5 29
10 17 17 36 -14 28 -44 -3 -15 -19 -39 -35 -54 -24 -22 -29 -35 -29 -74 0 -38
4 -50 21 -58 28 -16 63 -5 94 28 28 30 32 58 11 81 -8 9 -12 22 -7 29 10 16
86 -40 103 -76 11 -22 22 -28 58 -33 67 -9 190 -77 202 -111 13 -35 44 -54 63
-38 10 9 23 4 56 -20 45 -32 53 -41 95 -105 l26 -39 -22 -18 c-12 -10 -29 -18
-37 -18 -8 0 -28 -9 -44 -21 -34 -24 -38 -58 -10 -83 18 -17 21 -16 63 4 58
30 78 49 78 74 0 28 29 46 57 35 12 -4 29 -24 39 -44 17 -36 50 -58 104 -69
14 -3 52 -26 85 -51 33 -25 65 -48 70 -52 6 -5 25 -20 43 -36 19 -15 38 -25
43 -21 5 3 9 0 9 -7 0 -12 -11 -11 -140 12 -36 6 -76 12 -90 13 -13 0 -34 11
-47 24 -34 34 -78 29 -116 -13 -25 -28 -38 -35 -68 -35 -24 0 -39 5 -43 15 -7
19 -50 19 -66 0 -9 -11 -25 -13 -64 -9 -28 4 -53 8 -55 10 -2 2 -6 18 -8 34
-4 36 -37 106 -66 137 -15 17 -23 20 -34 12 -21 -18 -16 -76 9 -93 14 -10 23
-28 24 -51 3 -34 -8 -46 -21 -25 -4 7 -35 9 -89 4 -68 -5 -84 -4 -95 10 -18
21 -37 20 -59 -2 -31 -31 -48 -32 -73 -6 -31 33 -53 30 -83 -9 -32 -42 -73
-41 -98 3 -17 30 -46 32 -69 4 -30 -36 -49 4 -49 101 0 54 -24 87 -58 83 -44
-5 -51 -46 -19 -110 15 -29 27 -59 27 -67 0 -8 6 -11 18 -6 12 4 14 3 6 -5 -8
-8 -23 -7 -56 5 -30 10 -61 13 -92 9 -25 -4 -46 -4 -46 -1 0 5 24 70 49 132 4
11 17 40 29 65 13 25 22 65 22 90 0 25 5 63 11 85 6 22 12 51 12 65 1 14 12
33 25 43 15 12 22 29 22 52 0 36 25 105 39 105 5 0 14 -7 21 -15 7 -8 18 -15
24 -15 6 -1 20 -15 31 -33 15 -23 29 -33 53 -35 31 -3 32 -2 32 37 0 31 -6 44
-26 60 -15 12 -31 21 -36 21 -5 0 -24 14 -42 31 -37 33 -36 27 -15 139 16 85
14 83 64 49 25 -17 43 -35 39 -40z m-1934 46 c-7 -8 -16 -15 -21 -15 -5 0 -9
7 -9 15 0 9 9 15 21 15 18 0 19 -2 9 -15z m240 -29 c0 -12 -5 -7 -19 24 -11
24 -11 24 3 6 9 -11 16 -24 16 -30z m-1360 -31 c7 -9 6 -16 -4 -24 -19 -16
-46 -11 -60 12 -21 33 37 44 64 12z m2914 3 c-1 -13 -3 -26 -3 -30 -1 -5 -5
-8 -11 -8 -14 0 -13 33 2 48 15 15 15 16 12 -10z m300 6 c9 -24 7 -34 -7 -34
-18 0 -49 34 -40 43 12 13 41 7 47 -9z m-102 -10 c20 -7 32 -34 15 -34 -17 0
-57 29 -57 41 0 6 6 8 13 5 6 -3 20 -9 29 -12z m-1992 -8 c0 -3 -7 -12 -16
-20 -23 -23 -40 -19 -19 4 16 18 35 26 35 16z m-136 -60 c-10 -8 -21 -12 -24
-9 -3 2 4 11 14 19 11 7 22 12 25 9 2 -3 -4 -12 -15 -19z m384 -17 c10 -40 10
-40 -9 -23 -10 9 -19 28 -19 41 0 37 17 27 28 -18z m-1568 -15 c0 -27 -4 -43
-10 -39 -11 7 -13 45 -4 69 10 26 14 18 14 -30z m832 -6 c24 -19 27 -52 5 -56
-25 -5 -67 25 -67 48 0 23 36 28 62 8z m2938 -39 c0 -36 -2 -40 -15 -29 -8 7
-22 10 -30 6 -20 -7 -19 13 1 42 25 36 44 28 44 -19z m-680 17 c0 -2 -10 -26
-23 -54 -19 -41 -26 -48 -40 -40 -20 11 -23 68 -5 86 11 11 68 18 68 8z
m-1772 -32 c29 -19 28 -32 -3 -46 -35 -16 -74 11 -68 47 6 28 25 28 71 -1z
m-274 -8 c-10 -8 -21 -12 -24 -10 -5 6 21 24 34 24 6 0 1 -6 -10 -14z m2350 8
c9 -3 13 -11 10 -16 -4 -6 2 -8 15 -3 18 5 21 2 21 -19 0 -47 -89 -90 -104
-50 -11 28 -7 57 11 76 18 20 23 21 47 12z m-1758 -19 c7 -16 -4 -70 -12 -63
-2 3 -6 22 -7 42 -3 36 9 49 19 21z m1596 -22 c22 -19 24 -63 4 -63 -22 0 -46
29 -46 56 0 28 16 31 42 7z m364 -30 c-8 -8 -36 5 -36 17 0 7 6 7 21 0 11 -7
18 -14 15 -17z m1239 -5 c4 -4 5 -19 1 -33 -5 -18 -13 -25 -32 -25 -22 0 -24
4 -22 33 1 27 6 33 24 32 12 0 26 -3 29 -7z m-4892 -5 c2 -5 7 -21 11 -36 6
-23 4 -28 -10 -25 -22 4 -39 31 -31 52 7 17 23 21 30 9z m1077 -3 c0 -5 -12
-10 -27 -9 -25 0 -26 1 -8 9 27 12 35 12 35 0z m650 -59 c0 -21 -26 -49 -27
-28 0 6 -4 20 -8 30 -5 13 -2 17 14 17 14 0 21 -6 21 -19z m-910 -26 c-15 -16
-27 -22 -33 -16 -14 14 10 41 36 41 20 0 20 -1 -3 -25z m-753 -32 c-4 -17 -4
-17 -12 0 -4 9 -4 25 0 35 8 16 8 16 12 0 3 -10 3 -26 0 -35z m3980 5 c22 -21
31 -62 15 -72 -8 -5 -29 10 -56 41 -15 19 -16 25 -6 38 16 20 19 19 47 -7z
m605 -2 c0 -6 2 -26 3 -44 1 -31 -1 -33 -25 -27 -51 13 -69 45 -42 78 14 16
61 11 64 -7z m-742 -6 c8 -5 11 -12 7 -16 -4 -4 -15 0 -24 9 -18 18 -8 23 17
7z m-3094 -41 c10 -17 -7 -27 -56 -34 l-45 -6 40 25 c45 29 51 31 61 15z
m-116 -59 c0 -5 -5 -10 -11 -10 -5 0 -7 5 -4 10 3 6 8 10 11 10 2 0 4 -4 4
-10z m2330 -11 c0 -11 -4 -18 -10 -14 -5 3 -7 12 -3 20 7 21 13 19 13 -6z
m-2427 4 c8 -7 -41 -63 -55 -63 -12 0 -30 40 -24 56 5 14 67 20 79 7z m1207
-7 c6 -8 10 -23 8 -34 -2 -15 -6 -12 -19 14 -17 35 -11 45 11 20z m-1390 -31
c0 -21 -23 -33 -47 -24 -27 10 -30 36 -5 41 26 6 52 -3 52 -17z m4360 -13 c0
-21 -7 -47 -15 -58 -14 -17 -15 -15 -9 26 3 25 7 51 10 58 7 24 14 12 14 -26z
m-272 -33 c4 -46 -23 -82 -55 -73 -30 8 -31 52 -2 88 29 37 53 30 57 -15z
m-314 15 c6 -15 4 -15 -11 -3 -10 7 -20 15 -22 16 -2 2 3 3 11 3 9 0 19 -7 22
-16z m-4085 -71 c2 -23 -19 -13 -25 11 -8 35 8 59 17 26 4 -14 7 -31 8 -37z
m451 18 c0 -5 -7 -12 -16 -15 -14 -5 -15 -4 -4 9 14 17 20 19 20 6z m1440 -11
c16 -9 18 -15 9 -38 -6 -15 -17 -35 -26 -44 -15 -16 -17 -16 -34 6 -24 31 -24
41 1 66 23 23 25 23 50 10z m624 -42 c23 -32 21 -78 -2 -78 -35 0 -53 41 -36
84 8 22 20 20 38 -6z m1665 0 c29 -18 32 -23 17 -26 -10 -2 -30 7 -45 22 -31
32 -20 33 28 4z m131 18 c0 -2 -8 -10 -17 -17 -16 -13 -17 -12 -4 4 13 16 21
21 21 13z m-3248 -33 c10 -9 18 -26 18 -39 0 -17 -4 -21 -20 -17 -24 6 -44 39
-36 59 7 18 15 18 38 -3z m1807 -13 c-6 -16 -15 -30 -20 -30 -13 0 -11 13 7
38 21 30 25 28 13 -8z m-2259 -9 c0 -47 -25 -66 -50 -36 -18 22 -3 55 26 55
17 0 24 -6 24 -19z m2430 0 c5 -11 10 -32 10 -47 0 -25 -1 -26 -22 -12 -30 20
-42 42 -35 62 9 22 34 20 47 -3z m1595 9 c3 -5 1 -10 -4 -10 -6 0 -11 5 -11
10 0 6 2 10 4 10 3 0 8 -4 11 -10z m-64 -41 l-9 -34 -1 31 c-1 17 2 34 6 37
12 13 14 -1 4 -34z m-4251 12 c0 -24 -4 -27 -50 -35 l-35 -7 35 30 c41 36 50
38 50 12z m4067 -26 c18 -13 39 -55 26 -55 -7 0 -93 60 -93 65 0 11 47 4 67
-10z m313 11 c0 -2 -8 -10 -17 -17 -16 -13 -17 -12 -4 4 13 16 21 21 21 13z
m-3415 -56 c23 -25 19 -28 -35 -35 -23 -3 -47 -8 -51 -11 -16 -10 -9 13 12 40
24 31 49 33 74 6z m-1235 -39 c6 -23 6 -31 -2 -29 -19 7 -32 34 -24 53 8 22
14 17 26 -24z m385 19 c4 -6 -5 -10 -20 -10 -15 0 -24 4 -20 10 3 6 12 10 20
10 8 0 17 -4 20 -10z m1935 0 c0 -5 -10 -10 -22 -10 -19 0 -20 2 -8 10 19 13
30 13 30 0z m-180 -14 c0 -8 -14 -15 -35 -18 -38 -4 -45 5 -17 21 25 15 52 13
52 -3z m-1285 -6 c-3 -5 -10 -10 -16 -10 -5 0 -9 5 -9 10 0 6 7 10 16 10 8 0
12 -4 9 -10z m523 4 c13 -4 29 -20 37 -40 17 -41 39 -43 79 -9 35 30 57 32 74
5 15 -24 44 -26 76 -5 26 17 73 16 88 -2 6 -7 7 -13 4 -13 -4 0 0 -10 8 -22 9
-12 16 -36 16 -53 0 -17 4 -35 10 -41 5 -5 11 -35 14 -66 3 -51 2 -57 -18 -62
-11 -3 -37 -3 -57 0 -29 5 -41 1 -65 -19 -25 -22 -27 -28 -19 -53 9 -26 16
-29 61 -32 40 -2 54 1 69 18 32 35 44 27 66 -43 5 -19 4 -35 -4 -48 -15 -24
-3 -46 41 -74 48 -31 70 -78 86 -180 2 -12 -7 -29 -23 -42 l-26 -23 28 -23
c22 -19 30 -36 37 -83 4 -32 11 -67 15 -76 6 -14 2 -18 -16 -18 -13 1 -35 7
-49 15 -33 19 -85 19 -104 -1 -22 -21 -20 -28 15 -69 24 -27 39 -35 64 -35 18
0 38 7 45 15 7 8 27 15 46 15 29 0 33 -3 36 -31 2 -19 11 -36 23 -43 11 -6 22
-12 25 -14 2 -2 4 -20 5 -40 0 -33 3 -37 29 -42 40 -7 66 -52 59 -106 -4 -32
1 -53 26 -102 17 -34 34 -84 37 -110 3 -26 7 -59 9 -74 4 -23 1 -28 -16 -28
-11 0 -31 7 -45 16 -20 14 -30 15 -50 5 -14 -6 -36 -11 -49 -11 -21 0 -23 5
-27 58 -2 31 0 63 5 69 15 20 -1 63 -28 75 -18 8 -32 8 -55 -2 -37 -15 -41
-54 -9 -93 20 -27 38 -97 24 -97 -4 0 -21 12 -38 26 -31 26 -37 26 -110 8 -17
-4 -70 5 -150 26 l-124 32 16 34 c8 19 20 34 27 34 25 0 47 39 40 72 -18 92
-116 91 -116 -1 0 -31 -15 -96 -26 -109 -7 -10 -176 61 -254 107 -8 5 -39 19
-68 32 -29 12 -58 29 -64 37 -7 7 -29 21 -50 29 -21 8 -38 18 -38 21 0 13 45
52 60 52 55 0 77 65 39 114 -35 45 -99 26 -99 -30 0 -13 -4 -24 -9 -24 -5 0
-19 -16 -31 -35 -25 -40 -35 -39 -43 5 -6 27 -10 30 -43 30 -38 0 -113 45
-114 67 0 7 -17 23 -37 37 -64 40 -133 107 -148 142 -8 21 -21 34 -32 34 -13
0 -7 9 20 31 21 17 35 34 32 37 -3 3 9 13 26 22 44 21 56 42 43 77 -8 24 -16
28 -50 31 -44 3 -64 -11 -67 -47 -1 -12 -8 -21 -16 -21 -8 0 -27 -12 -43 -27
-15 -14 -29 -25 -31 -22 -2 2 -36 47 -75 100 -59 78 -72 103 -72 132 0 38 -27
77 -54 77 -16 0 -51 52 -61 91 -5 22 -2 28 24 39 17 7 31 16 31 21 0 5 15 9
33 9 40 0 57 15 57 51 0 58 -63 73 -106 25 -11 -12 -29 -25 -40 -28 -10 -3
-27 -9 -36 -13 -23 -9 -68 79 -68 133 0 25 -6 45 -17 53 -14 12 -43 68 -43 83
0 3 12 1 28 -3 15 -4 33 -6 39 -4 7 3 16 -2 19 -11 3 -8 22 -18 41 -22 27 -5
46 0 92 24 57 30 112 35 135 12 14 -14 42 -12 76 5 28 15 29 14 47 -15 22 -37
45 -38 71 -3 18 24 25 27 68 24 27 -1 50 -4 51 -5 4 -3 -33 -74 -47 -91 -6 -8
-10 -26 -8 -42 4 -40 36 -41 76 -2 26 25 32 38 28 58 -4 17 1 35 13 50 24 31
81 31 111 1 24 -24 52 -26 84 -5 21 14 23 14 34 -10 15 -33 44 -32 79 4 21 22
41 31 82 36 l53 7 -7 -33 c-4 -19 -11 -38 -16 -43 -15 -16 -10 -68 7 -87 13
-14 21 -16 35 -8 28 15 52 68 46 103 -13 80 22 118 91 100z m526 -9 c19 -14
18 -15 -16 -15 -37 0 -59 14 -36 23 21 9 32 7 52 -8z m-420 -4 c18 -1 18 -2 1
-21 -23 -25 -41 -25 -55 -1 -14 28 -13 31 13 27 12 -3 31 -5 41 -5z m2646 -1
c21 -13 12 -18 -50 -26 l-55 -7 19 22 c20 22 60 27 86 11z m410 -8 c0 -10 -6
-27 -14 -38 -13 -17 -13 -15 -3 19 13 41 17 46 17 19z m-1993 -20 c-16 -15
-47 -10 -47 7 0 11 30 19 48 13 11 -4 11 -8 -1 -20z m581 10 c2 -8 -8 -12 -30
-12 -31 1 -32 1 -13 15 21 17 37 15 43 -3z m182 3 c7 -8 8 -15 2 -15 -5 0 -24
-3 -42 -6 -31 -7 -31 -6 -19 15 16 25 41 27 59 6z m127 9 c-3 -3 -12 -4 -19
-1 -8 3 -5 6 6 6 11 1 17 -2 13 -5z m-1812 -20 c-20 -15 -37 -14 -42 2 -2 5
11 10 29 10 29 1 30 0 13 -12z m721 1 c8 -20 63 -20 92 1 25 17 52 13 52 -10
0 -13 20 -26 41 -26 5 0 19 11 31 25 19 22 48 34 48 20 0 -3 -12 -23 -26 -45
-34 -51 -45 -136 -19 -146 11 -5 27 3 48 24 25 25 31 40 32 74 0 84 47 115 83
56 15 -26 15 -31 -6 -97 -20 -63 -30 -76 -87 -127 l-65 -57 20 -33 c24 -37 20
-63 -17 -130 -15 -27 -29 -41 -38 -38 -7 3 -30 1 -50 -5 -31 -8 -39 -7 -56 10
-22 22 -32 23 -60 9 -14 -8 -19 -21 -19 -49 0 -54 24 -73 84 -65 25 4 49 11
52 15 3 5 14 9 24 9 18 0 18 -2 4 -35 -15 -38 -12 -52 18 -73 17 -13 17 -15
-3 -53 -13 -26 -31 -44 -49 -50 -30 -11 -43 -37 -29 -61 9 -17 -36 -98 -55
-98 -38 0 -67 -77 -42 -114 8 -13 14 -38 13 -55 -2 -24 -7 -31 -24 -31 -13 0
-24 8 -28 20 -7 21 -40 34 -72 28 -29 -5 -27 -43 5 -79 23 -26 36 -32 65 -31
47 2 47 -13 2 -29 -43 -16 -58 -55 -30 -75 16 -12 16 -15 -6 -53 -12 -22 -28
-42 -36 -45 -23 -9 -51 70 -48 136 3 53 0 59 -36 99 -21 24 -37 51 -36 62 1
13 -9 26 -28 36 -48 27 -89 120 -91 210 -1 40 -7 78 -13 84 -15 15 -14 43 2
67 10 17 9 26 -6 52 l-19 32 34 28 c18 15 40 30 49 33 20 7 39 48 39 85 0 28
-22 50 -50 50 -19 0 -60 -52 -60 -77 0 -21 -27 -63 -33 -52 -1 2 -8 15 -16 28
-65 116 -63 109 -49 147 12 35 12 37 -22 67 -46 41 -48 68 -8 118 36 44 32 69
-13 79 -17 4 -29 20 -43 53 -11 26 -16 50 -12 54 16 16 146 13 171 -3 22 -14
29 -14 67 -1 50 18 148 31 148 20 0 -4 -10 -23 -23 -42 -55 -84 -57 -96 -29
-131 l19 -23 40 37 c38 34 41 39 39 90 -1 69 17 91 79 95 33 1 47 -2 51 -14z
m56 3 c-17 -8 -26 -8 -34 0 -9 9 -4 12 23 11 32 0 33 -1 11 -11z m-2139 -9
c-15 -15 -99 -24 -106 -12 -4 6 7 10 24 11 17 0 34 3 37 6 3 3 17 6 31 6 18 0
22 -3 14 -11z m184 5 c-3 -3 -12 -4 -19 -1 -8 3 -5 6 6 6 11 1 17 -2 13 -5z
m131 -10 c-9 -9 -21 -13 -27 -10 -20 13 -11 26 16 26 25 0 26 -1 11 -16z
m2177 7 c3 -5 1 -12 -5 -16 -5 -3 -10 1 -10 9 0 18 6 21 15 7z m1140 -1 c3 -6
-4 -10 -17 -10 -18 0 -20 2 -8 10 19 12 18 12 25 0z m-2936 -17 c-15 -17 -34
-17 -49 2 -10 12 -7 14 24 13 29 -1 34 -4 25 -15z m102 -16 c-13 -13 -41 -1
-41 17 0 13 4 14 25 4 16 -7 22 -15 16 -21z m1740 10 c-13 -13 -26 -3 -16 12
3 6 11 8 17 5 6 -4 6 -10 -1 -17z m123 -14 c24 -27 24 -28 59 -11 44 21 142
16 170 -9 15 -15 21 -15 39 -4 27 17 108 23 108 7 0 -6 -9 -31 -20 -55 -11
-24 -20 -52 -20 -63 0 -28 18 -58 35 -58 23 0 68 76 62 102 -4 13 0 41 7 63
12 33 20 41 49 48 29 7 43 4 79 -17 44 -25 78 -22 78 8 0 23 100 -1 127 -30
25 -27 68 -32 98 -10 32 21 77 25 122 10 37 -13 45 -13 65 0 13 8 43 18 67 22
l44 7 -16 -24 c-10 -13 -17 -29 -17 -36 0 -7 -9 -22 -20 -33 -22 -22 -26 -70
-10 -101 16 -29 52 -23 89 15 37 38 44 78 18 103 -14 14 -12 19 18 51 29 29
39 33 62 27 15 -3 42 -20 59 -36 24 -24 37 -29 57 -24 14 4 31 13 38 21 6 8
26 14 43 14 18 0 38 6 45 13 16 14 18 19 -29 -100 -17 -46 -37 -83 -44 -83
-17 0 -36 21 -36 40 0 26 -45 46 -78 34 -24 -8 -27 -15 -27 -53 0 -29 5 -46
15 -51 8 -4 32 -16 53 -26 20 -10 37 -22 37 -26 0 -4 -11 -24 -25 -44 -14 -20
-25 -43 -25 -50 0 -7 -20 -46 -45 -86 -25 -40 -51 -82 -58 -93 -7 -11 -26 -39
-43 -62 l-31 -42 -22 23 c-11 12 -21 27 -21 33 0 20 -53 54 -78 51 -58 -7 -53
-80 7 -110 19 -10 43 -26 54 -37 19 -19 18 -20 -74 -122 -52 -56 -106 -110
-122 -118 -45 -25 -78 -52 -72 -60 2 -5 -7 -18 -20 -31 -24 -22 -26 -23 -44
-6 -12 11 -19 30 -19 47 2 64 -70 92 -117 45 -31 -31 -26 -47 38 -109 27 -26
46 -51 42 -55 -3 -4 -25 -11 -48 -17 -32 -8 -43 -15 -45 -33 -3 -23 -66 -70
-102 -77 -27 -5 -61 -24 -90 -49 -14 -12 -37 -30 -52 -39 -33 -20 -44 -9 -57
56 -11 58 -34 95 -66 103 -34 8 -75 -19 -75 -50 0 -26 35 -76 54 -76 10 0 46
-59 46 -75 0 -3 -11 -5 -24 -5 -13 0 -39 -12 -58 -27 -19 -16 -61 -36 -94 -47
-32 -10 -90 -29 -127 -42 -38 -13 -74 -24 -81 -24 -17 0 -32 73 -17 78 17 6
13 69 -5 97 -22 33 -76 35 -98 3 -22 -31 -20 -58 7 -98 30 -45 42 -100 22
-100 -8 0 -19 9 -25 20 -16 30 -49 24 -85 -15 -26 -27 -43 -35 -83 -41 -42 -5
-54 -3 -80 16 -38 28 -93 21 -127 -16 -18 -19 -32 -24 -74 -24 -28 0 -51 2
-51 3 0 2 6 17 14 33 8 16 17 53 21 82 5 39 15 63 38 89 17 19 32 47 33 62 3
38 43 121 58 121 23 0 66 40 66 62 0 11 -14 33 -31 49 -31 29 -31 30 -19 78
14 58 49 91 70 66 7 -8 19 -15 27 -15 8 0 28 -11 45 -25 47 -40 108 -32 108
15 0 36 -29 60 -79 67 -23 3 -41 10 -41 15 0 4 -11 14 -25 20 -19 9 -24 16
-19 32 10 30 37 65 51 66 7 0 20 11 28 24 13 19 14 32 6 67 -6 24 -12 67 -14
94 -2 48 -1 50 28 60 25 8 31 16 33 44 l4 35 43 -47 c47 -52 65 -57 95 -27 36
36 33 41 -83 127 -36 26 -47 39 -41 51 3 10 15 39 25 67 11 27 33 72 49 98 17
27 30 60 30 75 0 48 11 67 48 89 53 30 88 29 116 -4z m56 5 c-26 -9 -54 -3
-46 10 3 5 20 7 38 4 31 -5 32 -5 8 -14z m570 7 c0 -19 -11 -19 -36 0 -18 14
-18 14 9 15 17 0 27 -5 27 -15z m225 -15 l30 -7 -29 -12 c-23 -9 -33 -9 -52 4
-13 8 -24 18 -24 20 0 7 38 4 75 -5z m192 -6 c-3 -3 -12 -4 -19 -1 -8 3 -5 6
6 6 11 1 17 -2 13 -5z m388 -4 c7 -11 -39 -25 -54 -15 -6 3 -11 10 -11 16 0
12 57 12 65 -1z m-3085 -24 c0 -27 -37 -79 -51 -71 -5 4 -9 22 -9 41 0 27 5
37 23 44 33 13 37 12 37 -14z m-1225 -16 c3 -5 1 -10 -4 -10 -6 0 -11 5 -11
10 0 6 2 10 4 10 3 0 8 -4 11 -10z m2142 -6 c14 -14 13 -18 -13 -45 -36 -37
-44 -37 -44 4 0 51 27 71 57 41z m-2225 -28 c20 -30 0 -57 -43 -59 -29 -2 -35
2 -37 21 -5 32 25 64 52 56 12 -4 24 -12 28 -18z m4171 -7 c6 -22 -45 -89 -68
-89 -13 0 -26 56 -18 78 3 7 16 15 29 18 13 3 24 10 24 15 0 16 28 -2 33 -22z
m-795 -8 c4 -24 -34 -74 -49 -65 -13 8 -11 68 3 82 19 19 43 10 46 -17z
m-1494 -7 c21 -8 20 -21 -4 -51 -17 -23 -20 -23 -21 -7 0 11 -2 29 -3 42 -3
23 2 26 28 16z m2483 -25 c9 -9 8 -19 -2 -40 -19 -36 -30 -42 -55 -29 -22 12
-27 49 -8 68 15 15 51 15 65 1z m-4232 -49 c21 -41 19 -57 -5 -35 -11 10 -20
29 -20 42 0 31 6 29 25 -7z m245 -9 c15 -28 13 -39 -9 -51 -27 -14 -71 4 -71
29 0 38 62 55 80 22z m4120 -23 c0 -11 -8 -18 -20 -18 -23 0 -24 1 -8 35 12
27 28 18 28 -17z m-1805 -22 c-10 -14 -22 -26 -27 -26 -6 0 -8 -7 -5 -15 9
-22 -11 -28 -22 -6 -9 16 -5 24 27 49 43 35 51 34 27 -2z m-915 -25 c21 -40
-19 -71 -75 -57 -30 8 -35 49 -7 65 29 17 70 13 82 -8z m130 -79 c0 -32 -15
-18 -24 22 -6 26 -5 28 8 17 9 -8 16 -25 16 -39z m756 -138 c-5 -13 -46 -21
-46 -9 0 3 10 25 23 49 l22 43 3 -34 c2 -19 1 -41 -2 -49z m-766 28 c0 -12 -3
-12 -15 -2 -8 7 -15 22 -15 34 1 21 1 21 15 2 8 -11 15 -26 15 -34z m920 -16
c0 -21 -27 -38 -49 -31 -26 8 -32 28 -18 58 l12 25 27 -20 c16 -10 28 -25 28
-32z m1568 31 c2 -11 -6 -21 -24 -27 -35 -14 -39 -8 -18 25 18 28 37 29 42 2z
m-4032 -43 c10 -39 1 -36 -24 7 -23 39 -23 40 -3 29 11 -6 24 -22 27 -36z
m2091 8 c12 -8 36 -62 30 -68 -2 -2 -14 -5 -27 -6 -18 -2 -26 4 -33 23 -16 42
1 70 30 51z m1978 -98 c23 -9 49 -64 37 -76 -20 -20 -61 0 -70 35 -13 45 -5
55 33 41z m-1839 -34 c-1 -30 -10 -38 -21 -20 -8 12 3 50 15 50 4 0 7 -13 6
-30z m-2192 -39 c-7 -8 -44 32 -44 48 0 11 8 6 24 -14 13 -16 22 -32 20 -34z
m-166 27 c-8 -12 -20 -24 -26 -26 -7 -2 -2 8 11 22 27 32 34 33 15 4z m478
-42 c8 -35 -2 -46 -42 -46 -31 0 -34 3 -34 28 0 36 6 42 41 42 22 0 30 -6 35
-24z m3519 -16 c0 -15 -52 -56 -61 -48 -3 4 5 20 17 37 23 31 44 36 44 11z
m-3615 -40 c6 -11 7 -20 2 -20 -6 0 -12 9 -15 20 -3 11 -3 20 -1 20 2 0 8 -9
14 -20z m2004 -4 c-3 -9 -10 -16 -15 -16 -5 0 -4 9 3 20 14 22 21 20 12 -4z
m-624 -12 c0 -16 -16 -19 -25 -4 -8 13 4 32 16 25 5 -4 9 -13 9 -21z m-1466
-66 c12 -16 13 -24 4 -29 -17 -11 -25 -3 -30 26 -6 31 6 32 26 3z m2006 13 c0
-5 -7 -11 -15 -15 -15 -5 -20 5 -8 17 9 10 23 9 23 -2z m1517 -86 c-4 -8 -14
-15 -23 -15 -16 0 -16 2 1 20 20 22 31 20 22 -5z m-2105 -58 c19 -9 23 -17 18
-37 -8 -33 -41 -37 -78 -10 -57 42 -6 82 60 47z m1783 -17 c23 -25 14 -46 -24
-55 -36 -8 -49 -1 -60 28 -16 43 51 64 84 27z m-3055 -5 c16 -19 3 -40 -16
-24 -15 13 -19 39 -5 39 5 0 14 -7 21 -15z m1317 -7 c-3 -8 -6 -5 -6 6 -1 11
2 17 5 13 3 -3 4 -12 1 -19z m453 20 c-1 -2 -7 -25 -14 -53 -13 -48 -14 -49
-21 -22 -8 30 7 77 25 77 5 0 10 -1 10 -2z m171 -15 c13 -16 12 -17 -3 -4 -10
7 -18 15 -18 17 0 8 8 3 21 -13z m1269 -7 c0 -2 -7 -7 -16 -10 -8 -3 -12 -2
-9 4 6 10 25 14 25 6z m268 -22 c36 -25 26 -58 -19 -62 -30 -3 -37 1 -48 24
-6 15 -10 28 -9 29 8 6 44 24 48 25 3 0 16 -7 28 -16z m-3007 -61 c13 -16 12
-17 -3 -4 -17 13 -22 21 -14 21 2 0 10 -8 17 -17z m-508 -17 c42 -32 2 -90
-41 -60 -24 17 -28 44 -10 62 15 15 29 15 51 -2z m3217 2 c0 -20 -32 -48 -57
-48 -22 0 -22 1 9 30 36 32 48 37 48 18z m-2694 -64 c-3 -8 -13 -14 -22 -14
-16 0 -16 1 -1 18 10 10 18 27 18 38 1 15 3 14 6 -4 3 -13 2 -30 -1 -38z
m1315 36 c36 -20 18 -80 -24 -80 -16 0 -19 5 -13 31 3 17 6 38 6 45 0 17 5 17
31 4z m-127 -25 c20 -30 21 -55 2 -55 -22 0 -66 40 -66 61 0 29 44 25 64 -6z
m-1377 -10 c9 -25 -2 -27 -28 -6 l-24 20 23 1 c12 0 25 -7 29 -15z m1168 -5
c3 -5 1 -10 -4 -10 -6 0 -11 5 -11 10 0 6 2 10 4 10 3 0 8 -4 11 -10z m1545 6
c0 -2 -11 -11 -25 -20 -14 -9 -25 -12 -25 -6 0 6 10 15 23 20 27 11 27 11 27
6z m-414 -54 c34 -23 45 -92 15 -92 -55 0 -94 42 -77 85 6 16 43 20 62 7z
m-2242 -57 c11 -8 15 -15 10 -15 -6 0 -19 7 -30 15 -10 8 -14 14 -9 14 6 0 19
-6 29 -14z m1339 -17 c-6 -31 -20 -37 -30 -12 -4 10 1 22 12 30 23 17 24 16
18 -18z m-713 -47 c16 -31 12 -69 -9 -80 -26 -14 -61 25 -61 67 0 29 3 32 30
32 19 0 33 -7 40 -19z m1750 -61 c-11 -21 -22 -25 -34 -13 -3 4 4 13 16 20 30
16 30 16 18 -7z m-150 -14 c0 -2 -7 -7 -16 -10 -8 -3 -12 -2 -9 4 6 10 25 14
25 6z m-1196 -22 c20 -19 20 -28 2 -44 -24 -19 -61 -8 -64 19 -6 38 33 54 62
25z m-692 -32 c-30 -4 -55 5 -47 17 3 6 18 5 38 -2 29 -11 30 -12 9 -15z
m1823 -32 c-3 -5 -18 -10 -33 -9 -24 0 -25 1 -7 9 28 12 47 12 40 0z m-1982
-12 c34 -16 35 -41 2 -58 -30 -16 -55 0 -55 35 0 37 11 42 53 23z m363 -24
c33 -8 30 -21 -6 -29 -36 -8 -50 0 -50 27 0 14 5 18 16 14 9 -3 27 -9 40 -12z
m1204 -9 c17 -20 10 -26 -39 -32 -34 -5 -40 -3 -36 9 5 14 38 35 56 37 4 1 12
-6 19 -14z m-814 -30 c19 -14 19 -14 -1 -15 -11 0 -31 3 -43 7 -18 4 -20 8
-10 14 19 12 32 11 54 -6z m559 -7 c42 -19 29 -28 -40 -28 -36 0 -65 2 -65 5
0 7 53 34 67 35 7 0 24 -5 38 -12z m423 -4 c-16 -16 -131 -35 -116 -19 7 7 94
33 118 34 12 1 11 -2 -2 -15z m-1128 -18 c0 -3 -4 -8 -10 -11 -5 -3 -10 -1
-10 4 0 6 5 11 10 11 6 0 10 -2 10 -4z m1250 -46 c0 -5 7 -10 15 -10 8 0 24
-5 34 -12 18 -11 18 -15 6 -39 -17 -32 -33 -39 -62 -28 -28 10 -37 40 -22 73
12 26 29 35 29 16z m-710 -9 c0 -12 -39 -21 -58 -13 -12 5 -7 9 18 13 19 4 36
7 38 8 1 0 2 -3 2 -8z"/>
</g>
</svg>
